<svg width="57" height="58" viewBox="0 0 57 58" fill="none" xmlns="http://www.w3.org/2000/svg">
<g clip-path="url(#clip0_1_23)">
<rect width="57" height="58" fill="white"/>
<g filter="url(#filter0_d_1_23)">
<path d="M-3.02128 -8H59.5319L62.5106 -4.91667H64V64.4583L62.5106 62.9167L59.5319 66H-3.02128V61.375H-6V-4.91667H-3.02128V-8Z" fill="#514AA3" fill-opacity="0.7" shape-rendering="crispEdges"/>
<path d="M-3.02128 -8H59.5319L62.5106 -4.91667H64V64.4583L62.5106 62.9167L59.5319 66H-3.02128V61.375H-6V-4.91667H-3.02128V-8Z" fill="#666B9F" fill-opacity="0.3" shape-rendering="crispEdges"/>
<path d="M-3.02128 -8H59.5319L62.5106 -4.91667H64V64.4583L62.5106 62.9167L59.5319 66H-3.02128V61.375H-6V-4.91667H-3.02128V-8Z" stroke="#483BA4" shape-rendering="crispEdges"/>
</g>
<path d="M29.2114 20.967C26.6061 15.0302 13.9835 16.1035 14.1014 25.0706C14.1602 29.5431 18.1047 35.4431 29.4797 41.3738C40.6953 35.1736 44.4832 29.1825 44.4244 24.7099C44.3072 15.7979 31.6599 14.97 29.2114 20.967Z" fill="#B3B3B3"/>
</g>
<defs>
<filter id="filter0_d_1_23" x="-10.5" y="-8.5" width="79" height="83" filterUnits="userSpaceOnUse" color-interpolation-filters="sRGB">
<feFlood flood-opacity="0" result="BackgroundImageFix"/>
<feColorMatrix in="SourceAlpha" type="matrix" values="0 0 0 0 0 0 0 0 0 0 0 0 0 0 0 0 0 0 127 0" result="hardAlpha"/>
<feOffset dy="4"/>
<feGaussianBlur stdDeviation="2"/>
<feComposite in2="hardAlpha" operator="out"/>
<feColorMatrix type="matrix" values="0 0 0 0 0 0 0 0 0 0 0 0 0 0 0 0 0 0 0.25 0"/>
<feBlend mode="normal" in2="BackgroundImageFix" result="effect1_dropShadow_1_23"/>
<feBlend mode="normal" in="SourceGraphic" in2="effect1_dropShadow_1_23" result="shape"/>
</filter>
<clipPath id="clip0_1_23">
<rect width="57" height="58" fill="white"/>
</clipPath>
</defs>
</svg>
